<svg xmlns="http://www.w3.org/2000/svg" style="max-height: 500px" preserveAspectRatio="xMidYMid meet" viewBox="60.63321799307958 58.596000000000004 449.0968858131488 412.228" version="1.0" width="449.0968858131488" height="412.228"><rect x="60.63321799307958" y="58.596000000000004" width="449.0968858131488" height="412.228" fill="#38bdf8" pointer-events="none"/>
  <g stroke="none" fill="#000000" transform="translate(0.000000,514.000000) scale(0.066667,-0.066667)">
    <path d="M6038 6794 c-291 -30 -591 -225 -819 -533 -88 -120 -254 -371 -254 -386 0 -3 -44 -85 -97 -182 -54 -97 -98 -183 -98 -190 0 -28 29 -11 62 36 141 203 481 562 696 733 347 278 693 359 967 228 170 -81 187 -131 83 -243 -92 -99 -96 -97 150 -84 250 12 245 16 126 -107 -209 -219 -253 -433 -202 -988 39 -417 25 -728 -46 -1005 -53 -209 -313 -654 -456 -780 l-34 -30 8 196 c5 144 2 209 -12 243 -49 116 -219 143 -312 50 l-47 -48 -5 -387 -4 -387 -58 -33 c-32 -17 -61 -32 -65 -32 -4 0 -5 289 -1 641 7 705 9 687 -84 750 -62 42 -142 44 -206 5 -89 -54 -87 -34 -95 -839 l-7 -741 -57 -20 -56 -19 0 1203 c0 1164 -1 1204 -29 1250 -74 122 -277 110 -339 -20 -20 -42 -23 -201 -22 -1275 1 -1354 9 -1246 -86 -1249 l-34 -1 0 496 c0 602 -8 629 -185 629 -186 0 -192 -19 -190 -624 0 -274 -5 -502 -11 -505 -6 -4 -37 -4 -68 0 l-56 7 0 868 c0 527 -6 882 -15 906 -33 88 -186 126 -280 69 -90 -55 -87 -24 -82 -927 6 -896 6 -889 -70 -792 -17 21 -37 38 -46 38 -11 0 -17 178 -20 571 l-4 571 -49 44 c-90 80 -251 54 -306 -49 -11 -22 -16 -189 -14 -531 l2 -500 -79 -81 c-44 -44 -105 -95 -136 -114 -31 -19 -104 -74 -163 -122 -58 -49 -111 -89 -117 -89 -7 0 -62 -45 -123 -99 -61 -55 -142 -115 -181 -135 -38 -19 -140 -91 -225 -159 -267 -214 -475 -363 -634 -455 -82 -47 -218 -144 -278 -199 -21 -18 -107 -74 -191 -124 -176 -104 -180 -108 -148 -156 125 -191 785 15 1232 384 16 14 97 80 180 148 82 68 187 158 233 200 115 106 309 279 382 341 33 28 165 144 294 258 259 228 245 222 372 167 116 -51 117 -47 -55 -174 -237 -175 -356 -283 -1226 -1112 -499 -476 -473 -448 -473 -519 0 -172 194 -167 370 10 40 40 211 204 380 364 169 160 358 340 420 399 62 60 127 122 146 137 18 16 102 93 187 171 85 78 188 172 229 209 41 37 122 111 180 165 246 230 262 243 288 232 50 -19 355 -53 558 -62 1083 -49 1975 499 2276 1398 109 327 118 751 28 1356 -50 337 -47 432 17 627 56 169 176 293 480 492 74 48 137 91 141 96 4 5 20 14 35 20 79 29 -19 37 -361 29 l-372 -8 -22 41 c-114 214 -494 371 -817 337z"/>
    <path d="M8150 6635 c6 -5 14 -5 20 0 6 6 1 10 -10 10 -11 0 -16 -4 -10 -10z"/>
    <path d="M8760 6375 c0 -11 5 -15 10 -10 6 6 6 15 0 20 -5 6 -10 1 -10 -10z"/>
    <path d="M6178 6304 c-132 -19 -158 -237 -36 -295 141 -67 274 42 230 189 -24 80 -96 120 -194 106z"/>
    <path d="M8045 5795 c6 -5 14 -5 20 0 6 6 1 10 -10 10 -11 0 -16 -4 -10 -10z"/>
    <path d="M1733 1935 c-12 -19 8 -19 37 0 19 13 19 15 -3 15 -14 0 -29 -7 -34 -15z"/>
  </g>
</svg>